USFL
nRows=443
nColumns=2
inDegrees=yes
endheader
time	tib_ant_r	
12.2087	 52.372797	
12.2419	 52.357567	
12.2752	 52.365637	
12.3085	 52.369038	
12.3417	 52.360811	
12.375	 52.364504	
12.4083	 52.337081	
12.4415	 52.358171	
12.4748	 52.392895	
12.5081	 52.381596	
12.5413	 52.361551	
12.5746	 52.356795	
12.6079	 52.361578	
12.6411	 52.369299	
12.6744	 52.379621	
12.7077	 52.379740	
12.7409	 52.383864	
12.7742	 52.382738	
12.8075	 52.368956	
12.8407	 52.370121	
12.874	 52.381228	
12.9073	 52.367124	
12.9405	 52.384473	
12.9738	 52.385453	
13.0071	 52.378562	
13.0403	 52.390453	
13.0736	 52.392467	
13.1069	 52.400366	
13.1401	 52.403766	
13.1734	 52.402241	
13.2067	 52.404820	
13.2399	 52.400333	
13.2732	 52.408623	
13.3065	 52.430456	
13.3397	 52.502792	
13.373	 52.536106	
13.4062	 52.499389	
13.4395	 52.524245	
13.4728	 52.592016	
13.506	 52.559835	
13.5393	 52.660590	
13.5726	 52.792500	
13.6058	 52.826426	
13.6391	 52.841904	
13.6724	 52.843721	
13.7056	 52.804171	
13.7389	 52.781019	
13.7722	 52.788527	
13.8054	 52.781997	
13.8387	 52.783139	
13.872	 52.775123	
13.9052	 52.751185	
13.9385	 52.721958	
13.9718	 52.737977	
14.005	 52.639238	
14.0383	 52.691613	
14.0716	 52.754003	
14.1048	 52.716287	
14.1381	 52.770325	
14.1714	 52.855948	
14.2046	 52.812933	
14.2379	 52.826187	
14.2712	 52.813389	
14.3044	 52.835217	
14.3377	 52.822559	
14.371	 52.836450	
14.4042	 52.828452	
14.4375	 52.827859	
14.4708	 52.821643	
14.504	 52.830534	
14.5373	 52.792458	
14.5706	 52.782716	
14.6038	 52.814828	
14.6371	 52.798192	
14.6704	 52.787675	
14.7036	 52.803193	
14.7369	 52.817347	
14.7702	 52.813222	
14.8034	 52.850150	
14.8367	 52.867077	
14.87	 52.876944	
14.9032	 52.873740	
14.9365	 52.886659	
14.9698	 52.878894	
15.003	 52.870064	
15.0363	 52.866699	
15.0696	 52.870909	
15.1028	 52.877581	
15.1361	 52.869177	
15.1694	 52.884661	
15.2026	 52.874788	
15.2359	 52.879812	
15.2692	 52.874139	
15.3024	 52.881506	
15.3357	 52.880383	
15.369	 52.881227	
15.4022	 52.865413	
15.4355	 52.865379	
15.4687	 52.867837	
15.502	 52.868565	
15.5353	 52.869484	
15.5685	 52.864618	
15.6018	 52.866706	
15.6351	 52.892994	
15.6683	 52.897122	
15.7016	 52.904526	
15.7349	 52.885006	
15.7681	 52.886966	
15.8014	 52.879114	
15.8347	 52.870381	
15.8679	 52.874465	
15.9012	 52.878110	
15.9345	 52.874375	
15.9677	 52.874766	
16.001	 52.849080	
16.0343	 52.873837	
16.0675	 52.882481	
16.1008	 52.878876	
16.1341	 52.874221	
16.1673	 52.883317	
16.2006	 52.886031	
16.2339	 52.908585	
16.2671	 52.906692	
16.3004	 52.899623	
16.3337	 52.905182	
16.3669	 52.874346	
16.4002	 52.885923	
16.4335	 52.888752	
16.4667	 52.879030	
16.5	 52.855568	
16.5333	 52.858302	
16.5665	 52.854695	
16.5998	 52.854049	
16.6331	 52.850984	
16.6663	 52.834601	
16.6996	 52.845629	
16.7329	 52.879795	
16.7661	 52.866176	
16.7994	 52.850181	
16.8327	 52.866629	
16.8659	 52.867191	
16.8992	 52.830708	
16.9325	 52.811796	
16.9657	 52.796146	
16.999	 52.765206	
17.0323	 52.755125	
17.0655	 52.755497	
17.0988	 52.747621	
17.1321	 52.754115	
17.1653	 52.747631	
17.1986	 52.760758	
17.2319	 52.764045	
17.2651	 52.766838	
17.2984	 52.774592	
17.3317	 52.777863	
17.3649	 52.779600	
17.3982	 52.780108	
17.4315	 52.760943	
17.4647	 52.755261	
17.498	 52.748211	
17.5312	 52.758602	
17.5645	 52.758455	
17.5978	 52.729720	
17.631	 52.734720	
17.6643	 52.731630	
17.6976	 52.718124	
17.7308	 52.732396	
17.7641	 52.733854	
17.7974	 52.750187	
17.8306	 52.764246	
17.8639	 52.764415	
17.8972	 52.762029	
17.9304	 52.753537	
17.9637	 52.745647	
17.997	 52.755276	
18.0302	 52.745673	
18.0635	 52.754038	
18.0968	 52.736845	
18.13	 52.719237	
18.1633	 52.726187	
18.1966	 52.760811	
18.2298	 52.752532	
18.2631	 52.754439	
18.2964	 52.773018	
18.3296	 52.789109	
18.3629	 52.821180	
18.3962	 52.836248	
18.4294	 52.844970	
18.4627	 52.848236	
18.496	 52.829406	
18.5292	 52.840998	
18.5625	 52.836679	
18.5958	 52.831550	
18.629	 52.823659	
18.6623	 52.822842	
18.6956	 52.813285	
18.7288	 52.791067	
18.7621	 52.782106	
18.7954	 52.798798	
18.8286	 52.815711	
18.8619	 52.813503	
18.8952	 52.802206	
18.9284	 52.814265	
18.9617	 52.809395	
18.995	 52.810203	
19.0282	 52.817126	
19.0615	 52.816454	
19.0948	 52.820322	
19.128	 52.820901	
19.1613	 52.830030	
19.1946	 52.837173	
19.2278	 52.838661	
19.2611	 52.838795	
19.2944	 52.852651	
19.3276	 52.851366	
19.3609	 52.859602	
19.3942	 52.856601	
19.4274	 52.865855	
19.4607	 52.879734	
19.494	 52.877171	
19.5272	 52.882290	
19.5605	 52.883130	
19.5937	 52.853084	
19.627	 52.851651	
19.6603	 52.858207	
19.6935	 52.838115	
19.7268	 52.853830	
19.7601	 52.831233	
19.7933	 52.852870	
19.8266	 52.843113	
19.8599	 52.828688	
19.8931	 52.858488	
19.9264	 52.873167	
19.9597	 52.857754	
19.9929	 52.863016	
20.0262	 52.873562	
20.0595	 52.885984	
20.0927	 52.899787	
20.126	 52.896025	
20.1593	 52.895675	
20.1925	 52.909781	
20.2258	 52.913977	
20.2591	 52.894483	
20.2923	 52.895380	
20.3256	 52.890068	
20.3589	 52.883751	
20.3921	 52.911997	
20.4254	 52.987093	
20.4587	 52.934332	
20.4919	 52.816620	
20.5252	 52.835572	
20.5585	 52.876051	
20.5917	 52.911887	
20.625	 52.875633	
20.6583	 52.780863	
20.6915	 52.739050	
20.7248	 52.694525	
20.7581	 52.654725	
20.7913	 52.653728	
20.8246	 52.672175	
20.8579	 52.671841	
20.8911	 52.707455	
20.9244	 52.788008	
20.9577	 52.801669	
20.9909	 52.837120	
21.0242	 52.852032	
21.0575	 52.876683	
21.0907	 52.893888	
21.124	 52.897441	
21.1573	 52.891907	
21.1905	 52.938194	
21.2238	 52.934663	
21.2571	 52.945064	
21.2903	 52.953074	
21.3236	 52.943668	
21.3569	 52.968555	
21.3901	 52.993396	
21.4234	 52.998846	
21.4567	 53.008018	
21.4899	 53.032362	
21.5232	 53.029534	
21.5565	 53.073833	
21.5897	 53.074399	
21.623	 53.094023	
21.6562	 53.096928	
21.6895	 53.094539	
21.7228	 53.115734	
21.756	 53.120536	
21.7893	 53.122376	
21.8226	 53.151649	
21.8558	 53.164071	
21.8891	 53.169814	
21.9224	 53.221716	
21.9556	 53.227698	
21.9889	 52.776598	
22.0222	 52.857785	
22.0554	 52.876283	
22.0887	 52.872757	
22.122	 52.897274	
22.1552	 52.907664	
22.1885	 52.904939	
22.2218	 52.893192	
22.255	 52.901615	
22.2883	 52.918290	
22.3216	 52.929349	
22.3548	 52.933898	
22.3881	 52.944001	
22.4214	 52.926934	
22.4546	 52.905289	
22.4879	 52.910939	
22.5212	 52.891539	
22.5544	 52.963543	
22.5877	 52.993905	
22.621	 53.074623	
22.6542	 53.060563	
22.6875	 53.054130	
22.7208	 53.082371	
22.754	 53.075102	
22.7873	 53.066170	
22.8206	 53.083952	
22.8538	 53.072544	
22.8871	 52.824997	
22.9204	 52.836130	
22.9536	 52.848355	
22.9869	 52.856061	
23.0202	 52.862413	
23.0534	 52.845572	
23.0867	 52.876638	
23.12	 52.895410	
23.1532	 52.900037	
23.1865	 52.909989	
23.2198	 52.899381	
23.253	 52.898221	
23.2863	 52.914159	
23.3196	 52.903817	
23.3528	 52.904999	
23.3861	 52.898782	
23.4194	 52.893539	
23.4526	 52.911637	
23.4859	 52.924621	
23.5192	 52.914389	
23.5524	 52.933779	
23.5857	 52.946458	
23.619	 52.945989	
23.6522	 52.955457	
23.6855	 52.960697	
23.7187	 52.956066	
23.752	 52.957743	
23.7853	 52.969698	
23.8185	 52.968274	
23.8518	 52.964214	
23.8851	 52.950696	
23.9183	 52.987049	
23.9516	 52.996386	
23.9849	 53.020021	
24.0181	 53.060164	
24.0514	 53.022872	
24.0847	 53.025986	
24.1179	 53.021790	
24.1512	 52.983071	
24.1845	 52.960362	
24.2177	 52.964691	
24.251	 52.874662	
24.2843	 52.927603	
24.3175	 52.970642	
24.3508	 53.076183	
24.3841	 53.057990	
24.4173	 52.980365	
24.4506	 52.992355	
24.4839	 53.128908	
24.5171	 53.162373	
24.5504	 53.196153	
24.5837	 52.523592	
24.6169	 52.490566	
24.6502	 52.501392	
24.6835	 52.585717	
24.7167	 52.584011	
24.75	 52.758769	
24.7833	 52.932117	
24.8165	 52.771323	
24.8498	 52.719307	
24.8831	 52.717584	
24.9163	 52.708288	
24.9496	 52.664908	
24.9829	 52.679638	
25.0161	 52.637761	
25.0494	 52.592772	
25.0827	 52.604658	
25.1159	 52.587919	
25.1492	 52.487023	
25.1825	 52.522959	
25.2157	 52.616636	
25.249	 52.515966	
25.2823	 52.659982	
25.3155	 52.699227	
25.3488	 52.698257	
25.3821	 52.684599	
25.4153	 52.631874	
25.4486	 52.596396	
25.4819	 52.631027	
25.5151	 52.578724	
25.5484	 52.529664	
25.5817	 52.596982	
25.6149	 52.662986	
25.6482	 52.625747	
25.6815	 52.509690	
25.7147	 52.528000	
25.748	 52.589119	
25.7812	 52.650052	
25.8145	 52.633816	
25.8478	 52.794434	
25.881	 52.835923	
25.9143	 52.815749	
25.9476	 52.812257	
25.9808	 52.883049	
26.0141	 52.820128	
26.0474	 52.960999	
26.0806	 52.910494	
26.1139	 52.895054	
26.1472	 53.005859	
26.1804	 53.043611	
26.2137	 53.056959	
26.247	 53.095579	
26.2802	 53.014305	
26.3135	 52.920986	
26.3468	 53.079113	
26.38	 52.992508	
26.4133	 52.903628	
26.4466	 52.865162	
26.4798	 52.746024	
26.5131	 52.577700	
26.5464	 52.610652	
26.5796	 52.334947	
26.6129	 52.413636	
26.6462	 52.367958	
26.6794	 52.268687	
26.7127	 52.231290	
26.746	 52.098098	
26.7792	 52.004552	
26.8125	 51.928864	
26.8458	 51.892049	
26.879	 51.904981	
26.9123	 51.978906	
